<?xml version="1.0" encoding="utf-8"?>
<svg viewBox="0 0 500 500" xmlns="http://www.w3.org/2000/svg">
  <rect x="27.5" y="309.58" width="236.648" height="19.058" style="" rx="4.302" ry="4.302"/>
  <g transform="matrix(1, 0, 0, 1, 2, 13)">
    <rect x="230.552" y="240.804" width="236.648" height="19.058" style="" rx="4.302" ry="4.302"/>
    <rect x="230.552" y="240.888" width="236.648" height="12.359" style=""/>
  </g>
  <rect x="341.786" y="261.352" width="24.826" height="3.495" style="fill: rgb(255, 255, 255);" rx="1.747" ry="1.747"/>
  <rect x="275.29" y="127.933" width="158.071" height="105.638" style="stroke: rgb(0, 0, 0); fill: none; stroke-width: 17px;" rx="12.413" ry="12.413"/>
  <path style="" d="M 139.481 42.43 C 139.481 42.43 182.724 59.965 201.138 81.23 C 216.636 99.127 228.161 110.475 226.453 147.589 C 225.274 173.214 203.718 195.381 183.975 211.76 C 162.683 229.424 154.125 227.57 149.336 244.12 C 144.876 259.533 159.652 288.198 159.652 288.198 C 159.652 288.198 126.33 274.94 113.918 262.659 C 94.703 243.646 73.287 234.487 73.632 192.278 C 73.997 147.692 91.426 142.294 112.475 122.729 C 126.617 109.584 135.364 106.185 141.935 95.668 C 147.947 86.044 147.817 80.032 146.997 69.699 C 146.311 61.058 139.481 42.43 139.481 42.43 Z"/>
  <text style="font-family: Arial, sans-serif; font-size: 90px; font-weight: 700; white-space: pre;" x="51.797" y="427.535">easyBSB</text>
  <path style="fill: rgb(128, 128, 128);" d="M 274.279 324.685 C 274.279 324.685 336.848 324.165 338.767 324.1 C 347.065 323.818 358.588 315.62 358.874 307.322 C 359.075 301.489 359.154 277.86 359.154 277.86 L 347.85 278.126 C 347.85 278.126 348.262 295.248 347.865 301.335 C 347.499 306.949 342.36 312.079 334.872 312.748 C 333.634 312.859 274.314 312.882 274.314 312.882 L 274.279 324.685 Z"/>
</svg>